<svg clip-rule="evenodd" fill-rule="evenodd" stroke-linejoin="round" stroke-miterlimit="2" viewBox="0 0 560 400" xmlns="http://www.w3.org/2000/svg" xmlns:xlink="http://www.w3.org/1999/xlink"><clipPath id="a"><path clip-rule="evenodd" d="m1084.75 2120.55h482.111v145.383h-482.111z"/></clipPath><g clip-path="url(#a)" transform="matrix(.746718 0 0 -.746718 -710.007 1835.98)"><g fill="#003a70" fill-rule="nonzero"><path d="m0 0c0 6.987-.133 12.849-.51 18.079h13.221l.62-8.977h.369c2.99 4.745 8.481 10.358 18.703 10.358 7.979 0 14.21-4.507 16.826-11.231h.255c2.129 3.37 4.618 5.854 7.478 7.605 3.365 2.367 7.234 3.626 12.229 3.626 10.086 0 20.299-6.86 20.299-26.32v-35.77h-14.956v33.536c0 10.095-3.486 16.081-10.831 16.081-5.247 0-9.119-3.744-10.729-8.11-.374-1.493-.751-3.361-.751-5.099v-36.408h-14.964v35.155c0 8.476-3.362 14.462-10.466 14.462-5.737 0-9.595-4.487-10.967-8.719-.621-1.508-.885-3.248-.885-4.995v-35.903h-14.941z" transform="translate(1085.27 2164.54)"/><path d="m0 0c-10.848.255-21.189-2.106-21.189-11.339 0-5.975 3.866-8.727 8.728-8.727 6.097 0 10.596 3.988 11.954 8.35.377 1.12.507 2.373.507 3.365zm14.956-15.08c0-5.483.252-10.823.881-14.582h-13.841l-.995 6.735h-.389c-3.733-4.739-10.088-8.101-17.935-8.101-12.223 0-19.074 8.833-19.074 18.077 0 15.332 13.578 23.054 36.02 22.932v.998c0 3.991-1.624 10.598-12.334 10.598-5.989 0-12.231-1.879-16.336-4.495l-2.996 9.969c4.487 2.752 12.348 5.377 21.946 5.377 19.448 0 25.053-12.353 25.053-25.562z" transform="translate(1218.08 2151.58)"/><path d="m0 0c0 6.987-.139 12.849-.502 18.079h13.451l.751-9.099h.368c2.617 4.728 9.233 10.48 19.321 10.48 10.608 0 21.575-6.86 21.575-26.059v-36.031h-15.338v34.279c0 8.728-3.243 15.338-11.591 15.338-6.109 0-10.338-4.356-11.968-8.974-.488-1.378-.621-3.251-.621-4.978v-35.665h-15.446z" transform="translate(1243.64 2164.54)"/><path d="m0 0c0 1.239-.128 2.735-.371 3.983-1.375 5.984-6.231 10.842-13.215 10.842-9.848 0-15.33-8.731-15.33-20.072 0-11.095 5.482-19.207 15.21-19.207 6.225 0 11.716 4.243 13.207 10.851.371 1.374.499 2.882.499 4.501zm15.33 49.691v-68.02c0-6.23.255-12.968.499-17.076h-13.712l-.612 9.59h-.255c-3.614-6.721-10.987-10.962-19.825-10.962-14.457 0-25.929 12.323-25.929 31.028-.122 20.328 12.597 32.429 27.181 32.429 8.346 0 14.335-3.495 17.074-8h.249v31.011z" transform="translate(1349.74 2157.32)"/><path d="m1375.91 2121.92h15.48v60.704h-15.48z"/><path d="m0 0c0 8.226-.125 14.094-.502 19.57h13.343l.493-11.582h.508c2.987 8.6 10.097 11.582 16.579 11.582 1.494 0 2.367.258 3.615 0v-13.467c-1.248.255-2.617.505-4.496.505-7.348 0-12.334-4.734-13.7-11.588-.249-1.37-.496-3.002-.496-4.754v-31.397h-15.344z" transform="translate(1402.22 2163.05)"/><path d="m1443.36 2121.92h15.449v60.704h-15.449z"/></g><path d="m0 0c-7.628 8.688-15.724 4.765-22.187 1.562-2.707-1.338-12.535-7.88-22.274-12.441-6.94-3.252-16.901-2.268-22.363 4.478-.332.409-9.162 11.107-10.097 12.425-5.734 7.191-20.239 13.155-37.57 3.237-9.287-5.375-31.17-17.932-39.351-22.604-4.972-2.537-16.515-3.645-23.034 5.162-.108.145-8.674 10.834-9.017 11.245-.253.289-5.786 8.496-18.119 8.748-1.814.045-10.874.099-19.727-4.927-11.738-6.715-39.058-22.334-39.058-22.334-.02 0-.02-.014-.02-.014-11.231-6.429-19.99-11.421-19.99-11.421l10.341-12.71c4.841-6.001 15.743-10.653 25.206-5.222 0 0 34.951 20.24 35.073 20.296 15.12 8.297 26.787 8.297 34.517 5.208 6.953-2.929 12.997-10.242 12.997-10.242s7.906-9.797 9.295-11.509c4.495-5.533 11.931-3.362 11.931-3.362s2.747.318 6.919 2.784c0 0 33.846 19.624 33.866 19.63 10.754 6.307 20.619 7.483 25.65 7.024 15.781-1.437 20.688-12.461 27.536-20.148 4.028-4.533 7.659-7.096 13.218-6.965 3.66.082 7.784 2.29 8.393 2.687l40.536 23.4s-4.153 6.259-12.671 16.013" fill="#ffb700" transform="translate(1554.2 2246.75)"/></g></svg>