<svg clip-rule="evenodd" fill-rule="evenodd" stroke-linejoin="round" stroke-miterlimit="2" viewBox="0 0 560 400" xmlns="http://www.w3.org/2000/svg"><g fill-rule="nonzero" transform="matrix(1.82053 0 0 1.82053 97.25 99.8729)"><g><path d="m144.075 28.003c-14.047 0-25.432 10.978-25.432 24.533s11.385 24.549 25.432 24.549c14.048 0 25.432-10.994 25.432-24.549s-11.384-24.533-25.432-24.533zm-1.325 7.857c9.081 0 16.439 7.006 16.439 15.65 0 8.645-7.358 15.651-16.439 15.651-9.08 0-16.439-7.006-16.439-15.651 0-8.644 7.359-15.65 16.439-15.65z" fill="#5c5c5c"/><path d="m161.099 1.041c-.81-.024-1.463.313-2.177.805-.875.602-1.632 1.578-2.083 2.54-2.302 4.916-4.478 9.653-6.673 14.372-.54 1.161-1.162 2.458-2.099 3.329-.586.546-1.169 1.039-1.94.821-.798-.226-1.064-.607-1.341-1.389-.353-.994-.331-2.942-.442-3.991-.217-2.051.054-4.159-.473-6.153-.248-.937-1.087-3.021-2.382-3.092-1.982-.11-3.412 2.914-4.26 4.606-1.984 3.956-2.631 8.382-2.588 14.799.005.683.055 2.051.055 2.051s2.821-.949 4.252-1.231c.828-.163 1.67-.295 2.525-.379.855-.083 1.725-.126 2.603-.126s1.748.043 2.603.126c.855.084 1.696.216 2.524.379 1.656.327 3.259.799 4.781 1.42 1.521.62 2.954 1.374 4.307 2.256 1.353.881 2.62 1.888 3.77 2.998 1.151 1.109 2.194 2.323 3.108 3.628s1.692 2.713 2.335 4.181c.644 1.468 1.145 3.009 1.483 4.607.17.798.308 1.604.395 2.429s.126 1.662.126 2.509-.039 1.683-.126 2.508-.225 1.647-.395 2.446c-.338 1.598-.839 3.138-1.483 4.607-.258.588-.517 1.124-.82 1.688.046.009.253.054.3.063 2.884.581 5.66.856 8.598.694 4.563-.252 9.326-.558 13.347-2.729 1.356-.732 3.143-1.821 3.187-3.361.04-1.401-1.373-2.444-2.572-3.171-1.206-.731-2.989-.826-4.386-1.025-2.077-.297-3.862-.03-6.073-.284-1.801-.207-4.474-.567-4.86-2.43-.367-1.775 1.826-3.309 3.124-4.575 2.619-2.554 5.917-4.297 8.788-6.563 3.313-2.616 6.493-4.987 9.497-7.952.955-.942 1.877-1.67 2.587-2.808.506-.81 1.114-2.078 1.026-3.029-.059-.633-.405-1.11-.931-1.467-.854-.58-1.776-.512-2.808-.505-1.066.007-1.96.262-2.966.615-2.77.972-5.381 2.366-8.015 3.66-1.947.957-3.665 2.461-5.758 3.03-1.257.341-3.077 1.186-3.897.173-.798-.985.458-2.506.946-3.676 1.004-2.403 2.632-4.509 4.008-6.72 1.542-2.479 3.352-4.782 4.764-7.337.694-1.255 1.567-2.499 1.815-3.912.177-1.015.208-2.163-.269-3.077-.273-.524-.781-.999-1.356-1.136-1.041-.246-2.194.213-3.171.647-1.437.638-3.378 2.036-4.465 3.171-3.697 3.859-6.685 7.253-10.192 10.839-1.201 1.228-2.813 3.418-4.386 2.729-1.089-.476-.864-2.276-.726-3.439.418-3.532 1.172-7.159 1.578-10.759.191-1.698.555-3.546.41-5.112-.08-.864-.176-1.69-.678-2.398-.357-.503-1.079-.774-1.689-.868-.126-.015-.252-.024-.368-.028zm-18.346 34.819c-1.135 0-2.243.107-3.313.316-1.071.208-2.125.487-3.108.883-.022.009-.033.046-.055.055.011.029.028.074.039.103 1.835 4.825 4.027 9.741 7.383 13.694 3.376 3.978 7.727 7.144 12.387 9.567.025.013.084.044.109.057.066-.09.124-.177.189-.268.591-.833 1.098-1.73 1.514-2.666s.744-1.916.963-2.935.331-2.075.331-3.155c0-1.081-.112-2.137-.331-3.155-.219-1.019-.547-1.999-.963-2.935s-.923-1.834-1.514-2.666c-.591-.833-1.26-1.596-2.004-2.304s-1.555-1.362-2.429-1.924c-.875-.563-1.81-1.04-2.793-1.436s-2.022-.707-3.092-.915c-1.07-.209-2.178-.316-3.313-.316z" fill="#d51100"/><path d="m166.683 63.785c.303-.564.562-1.102.82-1.69.644-1.469 1.145-3.009 1.483-4.607.17-.799.308-1.62.395-2.446.086-.825.126-1.661.126-2.508s-.04-1.684-.126-2.509c-.087-.825-.225-1.631-.395-2.429-.339-1.598-.839-3.139-1.483-4.607-.643-1.468-1.421-2.876-2.335-4.181s-1.957-2.519-3.108-3.628c-1.15-1.11-2.417-2.117-3.77-2.998-1.353-.882-2.786-1.636-4.307-2.256-1.522-.621-3.125-1.093-4.781-1.42-.828-.163-1.669-.295-2.524-.379-.855-.083-1.725-.126-2.603-.126s-1.748.043-2.603.126c-.855.084-1.697.216-2.525.379-1.431.282-2.918.711-4.251 1.215.161 2.002.723 5.083 1.583 7.393.022-.009.043-.016.065-.025.984-.396 2.022-.707 3.092-.915 1.071-.209 2.179-.316 3.314-.316s2.242.107 3.313.316c1.07.208 2.109.519 3.092.915s1.918.873 2.792 1.435c.875.563 1.686 1.217 2.43 1.925s1.413 1.471 2.004 2.304c.59.832 1.098 1.73 1.514 2.666s.744 1.915.963 2.934.331 2.075.331 3.156c0 1.08-.112 2.136-.331 3.155s-.547 1.998-.963 2.934c-.416.937-.924 1.834-1.514 2.667-.065.091-.129.176-.196.266 3.466 1.596 7.243 2.589 10.498 3.254z" fill="#fff"/></g><g fill="#171717"><path d="m40.21 52.743c-1.052 0-1.888.859-1.888 1.935v21.722c0 1.076.836 1.935 1.888 1.935 1.051 0 1.903-.859 1.903-1.935v-21.722c0-1.076-.852-1.935-1.903-1.935zm7.381 0c-1.052 0-1.904.859-1.904 1.935v21.722c0 1.076.852 1.935 1.904 1.935 1.051 0 1.888-.859 1.888-1.935v-2.778l2.933-2.809 5.852 6.96c.557.726 1.934.68 2.575.109.702-.624.588-1.926.031-2.652l-5.649-7.101 5.415-5.196c.855-.854.659-1.998-.062-2.621-.905-.782-1.971-.557-2.637.109l-8.458 7.974v-13.716c0-1.076-.837-1.935-1.888-1.935zm-44.458 1.42c-.895 0-1.622.767-1.622 1.732s.727 1.748 1.622 1.748h6.601v18.881c0 1.011.837 1.81 1.888 1.81 1.052 0 1.904-.799 1.904-1.81v-18.881h6.851c.895 0 1.622-.783 1.622-1.748s-.727-1.732-1.622-1.732zm68.271 5.509c-5.37 0-9.722 4.243-9.722 9.472 0 5.228 4.352 9.456 9.722 9.456 5.369 0 9.721-4.228 9.721-9.456 0-5.229-4.351-9.472-9.721-9.472zm32.551.109c-.558-.009-1.113.031-1.654.14-.995.202-1.961.586-2.84 1.093-.696.401-1.888 1.31-1.888 1.31s-1.228-1.724-3.527-2.34c-.505-.136-1.026-.274-1.545-.278-.946-.008-1.93.076-2.824.387-1.029.358-2.762 1.748-2.762 1.748v-.125c0-1.083-.837-1.732-1.888-1.732-1.293 0-1.888.867-1.888 1.95v14.45c0 1.083.836 1.951 1.888 1.951 1.051 0 1.904-.868 1.904-1.951v-9.238c0-1.363.858-2.567 2.012-3.292.498-.313 1.336-.443 1.92-.515.635-.078 1.195-.071 2.091.14 1.097.302 2.294 1.631 2.294 3.652v9.253c0 1.083.837 1.951 1.888 1.951s1.904-.868 1.904-1.951v-9.69c0-.963.953-2.164 1.732-2.731.699-.509 1.554-.686 2.418-.702.704-.013 1.392.018 2.06.468.502.338.967.869 1.249 1.404.327.623.468.826.468 1.53 0 .041.008.076.015.109v9.612c0 1.083.837 1.951 1.888 1.951 1.052 0 1.904-1.042 1.904-1.951v-10.29c0-1.888-.639-2.934-1.186-3.644-.55-.681-1.28-1.217-2.028-1.67-.602-.365-1.262-.669-1.951-.811-.541-.113-1.096-.179-1.654-.188zm-76.43.015c-5.64 0-9.222 4.244-9.222 9.472 0 5.229 3.931 9.301 9.3 9.301 3.877 0 5.399-.671 7.069-2.341.566-.565 1.058-2.032.234-2.856-.652-.652-1.895-.407-2.387-.046-1.486 1.088-2.934 1.857-4.916 1.857-2.798 0-4.929-1.992-5.056-4.338h10.658c1.228 0 1.752-.327 2.185-.656.341-.259.765-1.132.765-1.56 0-4.648-3.295-8.833-8.63-8.833zm43.849 3.231c3.291 0 5.961 2.77 5.961 6.194 0 3.425-2.67 6.211-5.961 6.211s-5.961-2.786-5.961-6.211c0-3.424 2.67-6.194 5.961-6.194zm-44.098.031c3.212 0 4.681 2.278 4.681 4.291h-9.457c0-1.95 1.656-4.291 4.775-4.291z"/><path d="m62.025 83.288c-.999 0-1.794.807-1.794 1.81v7.927c-1.249-1.673-3.169-2.976-6.117-2.871-5.367.192-9.285 3.744-9.285 9.41 0 5.228 3.665 9.332 9.035 9.332 3.085 0 5.077-1.447 6.367-3.199v1.248c0 1.003.794 1.81 1.794 1.81s1.81-.807 1.81-1.81v-21.846c0-1.003-.81-1.81-1.81-1.81zm-41.695.874c-1 0-1.795.853-1.795 1.919v20.692c0 1.066.795 1.92 1.795 1.92.999 0 1.81-.853 1.81-1.92v-20.692c0-1.066-.811-1.919-1.81-1.919zm111.793 5.852c-1.248.048-2.55.207-3.667.764-.91.455-1.748 1.155-2.294 2.013-.5.786-.79 1.753-.78 2.684.01.938.308 1.914.842 2.684.542.78 1.414 1.294 2.248 1.748 1.132.617 2.44.835 3.651 1.28.952.349 2.079.421 2.84 1.092.439.387.81.96.827 1.545.018.63-.38 1.18-.858 1.591-.563.484-1.536.515-2.279.531-.867.018-1.562-.121-2.387-.39-.545-.178-1.011-.426-1.529-.671-.422-.199-.801-.48-1.233-.655-.419-.17-.869-.475-1.311-.375-.485.11-.9.531-1.108.983-.176.384-.092.653.063 1.046.202.513.665.918 1.108 1.248.67.501 1.649.911 2.45 1.155 1.216.37 2.255.578 3.526.561 1.308-.017 2.611-.096 3.839-.546 1.139-.417 1.882-1.058 2.543-2.075.597-.919.816-1.809.749-2.902-.044-.736-.067-1.635-.452-2.263-.435-.708-1.142-1.315-1.841-1.763-.978-.627-1.956-.88-3.028-1.327-.842-.35-1.713-.652-2.543-1.03-.525-.238-1.143-.366-1.545-.78-.316-.325-.596-.779-.577-1.233.021-.521.367-1.037.78-1.357.537-.417 1.286-.532 1.966-.546.619-.014 1.314.169 1.904.358.517.166.97.504 1.482.687.614.219 1.143.573 1.795.562.549-.01 1.251-.077 1.56-.531.296-.434.178-1.109-.062-1.576-.275-.533-.891-.968-1.405-1.279-.703-.426-1.472-.619-2.262-.843-.974-.276-2-.429-3.012-.39zm-56.471.015c-5.369 0-9.722 4.244-9.722 9.473 0 5.228 4.352 9.456 9.722 9.456s9.722-4.228 9.722-9.456c0-5.229-4.352-9.473-9.722-9.473zm39.995.047c-5.64 0-9.238 4.244-9.238 9.472 0 5.229 3.93 9.301 9.3 9.301 3.877 0 5.399-.671 7.069-2.341.565-.566 1.058-2.032.234-2.856-.653-.652-1.895-.407-2.388-.046-1.485 1.088-2.933 1.856-4.915 1.856-2.798 0-4.929-1.991-5.056-4.338h10.658c1.228 0 1.752-.326 2.185-.655.341-.259.764-1.132.764-1.56 0-4.648-3.278-8.833-8.613-8.833zm40.556.063c-1.259-.017-2.55.101-3.745.499-.667.222-1.37.508-1.841 1.03-.361.4-.725.951-.64 1.482.075.473.317.868.952 1.077 1.141.377 1.915-.334 3.462-.749 1.741-.466 4.002-.442 5.432.655.983.755 1.348 3.145 1.389 3.449-.385-.12-.868-.266-1.233-.328-.911-.153-1.839-.175-2.762-.171-1.199.004-2.424-.007-3.589.249-1.145.253-2.346.496-3.246 1.249-.815.681-1.414 1.712-1.716 2.731-.352 1.188-.316 2.801.156 3.947.528 1.284 1.549 1.994 2.762 2.669 1.164.647 2.569.934 3.901.921 1.599-.017 3.281-.467 4.619-1.342.509-.333 1.139-1.296 1.139-1.296l-.016.796c-.027.954.811 1.779 1.811 1.779.999 0 1.794-.792 1.794-1.779v-4.822s-.012-4.65-.406-7.037c-.183-1.114-1.028-2.259-1.825-3.059-.69-.692-1.465-1.005-2.294-1.295-1.308-.457-2.719-.637-4.104-.655zm-121.451.078c-.761.014-1.664.082-2.247.281-1.153.392-2.964 1.654-2.964 1.654v-.125c0-.631-.198-1.748-1.764-1.748-1.289 0-1.685 1.055-1.685 2.138v14.45c0 1.083.837 1.95 1.888 1.95s1.904-.867 1.904-1.95v-9.238c0-1.363.859-2.567 2.013-3.292.497-.313 1.336-.443 1.919-.515.635-.079 1.195-.071 2.091.14 1.1.302 2.653 1.631 2.653 3.651v9.254c0 1.083.837 1.95 1.888 1.95s1.904-.867 1.904-1.95v-9.628c0-2.114-.603-3.523-1.436-4.603-.856-1.11-2.381-1.897-3.745-2.263-.034-.009-.075-.014-.109-.016-.532-.125-1.086-.136-1.607-.14-.206-.002-.449-.005-.703 0zm61.919 0c-.761.014-1.664.082-2.247.281-1.154.392-2.965 1.654-2.965 1.654v-.125c0-.631-.197-1.748-1.763-1.748-1.29 0-1.685 1.055-1.685 2.138v14.45c0 1.083.836 1.95 1.888 1.95 1.051 0 1.903-.867 1.903-1.95v-9.238c0-1.363.859-2.567 2.013-3.292.498-.313 1.336-.443 1.92-.515.635-.079 1.195-.071 2.091.14 1.1.302 2.653 1.631 2.653 3.651v9.254c0 1.083.836 1.95 1.888 1.95 1.051 0 1.903-.867 1.903-1.95v-9.628c0-2.114-.602-3.523-1.435-4.603-.856-1.11-2.381-1.897-3.745-2.263-.034-.009-.075-.014-.109-.016-.532-.125-1.086-.136-1.608-.14-.205-.002-.448-.005-.702 0zm47.375.125c-.999 0-1.794.792-1.794 1.778v14.794c0 .986.795 1.778 1.794 1.778 1 0 1.811-.792 1.811-1.778v-14.794c0-.986-.811-1.778-1.811-1.778zm-28.649 3.011c3.212 0 4.681 2.263 4.681 4.276h-9.472c0-1.95 1.671-4.276 4.79-4.276zm-39.776.031c3.29 0 5.961 2.771 5.961 6.195 0 3.425-2.67 6.211-5.961 6.211s-5.961-2.786-5.961-6.211 2.67-6.195 5.961-6.195zm-21.347.063c3.29 0 5.961 2.77 5.961 6.195 0 3.424-2.545 5.836-5.836 5.836s-5.837-2.411-5.837-5.836 2.421-6.195 5.712-6.195zm102.086 6.366c1.021-.056 2.11.078 3.121.235.507.078 1.221.213 1.857.343.005.09.094 1.612-.188 2.325-.381.965-.987 2.046-1.888 2.59-.98.593-2.319.722-3.464.702-.911-.015-1.885-.228-2.622-.764-.683-.499-1.085-1.17-1.154-2.013-.081-.993.177-1.898.936-2.544.886-.754 2.24-.809 3.402-.874z"/></g></g></svg>